# xmcd CD database file
#
# Track frame offsets:
#	150
#	15156
#	30338
#	46147
#	58878
#	73279
#	86940
#	100236
#	110226
#	121169
#	133422
#	146035
#	160543
#	171891
#	183842
#	195217
#	206515
#	222002
#	235442
#	249344
#	263519
#	276150
#	289091
#	301777
#	314664
#
# Disc length: 4371 seconds
#
# Revision: 0
# Processed by: cddbd v1.5.2PL0 Copyright (c) Steve Scherf et al.
# Submitted via: jetAudio 7
#
DISCID=68111119
DTITLE=Неизвестный исполнитель - Неизвест
DTITLE=ный альбом
DYEAR=2013
DGENRE=Неизвестный жанр
TTITLE0=Дорожка 1
TTITLE1=Дорожка 2
TTITLE2=Дорожка 3
TTITLE3=Дорожка 4
TTITLE4=Дорожка 5
TTITLE5=Дорожка 6
TTITLE6=Дорожка 7
TTITLE7=Дорожка 8
TTITLE8=Дорожка 9
TTITLE9=Дорожка 10
TTITLE10=Дорожка 11
TTITLE11=Дорожка 12
TTITLE12=Дорожка 13
TTITLE13=Дорожка 14
TTITLE14=Дорожка 15
TTITLE15=Дорожка 16
TTITLE16=Дорожка 17
TTITLE17=Дорожка 18
TTITLE18=Дорожка 19
TTITLE19=Дорожка 20
TTITLE20=Дорожка 21
TTITLE21=Дорожка 22
TTITLE22=Дорожка 23
TTITLE23=Дорожка 24
TTITLE24=Дорожка 25
EXTD=
EXTT0=
EXTT1=
EXTT2=
EXTT3=
EXTT4=
EXTT5=
EXTT6=
EXTT7=
EXTT8=
EXTT9=
EXTT10=
EXTT11=
EXTT12=
EXTT13=
EXTT14=
EXTT15=
EXTT16=
EXTT17=
EXTT18=
EXTT19=
EXTT20=
EXTT21=
EXTT22=
EXTT23=
EXTT24=
PLAYORDER=
